<svg xmlns:xlink="http://www.w3.org/1999/xlink" xmlns="http://www.w3.org/2000/svg" class="sg-subject-icon sg-subject-icon--small" aria-labelledby="sg-math-symbol-icon-art-title" role="img" width="512"  height="512" ><defs><symbol viewBox="0 0 512 512" fill="none" style="overflow: visible" id="icon-subject-art" xmlns="http://www.w3.org/2000/svg"><path d="M249.201 42.78a213.85 213.85 0 0 0-144.82 63.328 213.655 213.655 0 0 0-61.715 145.461 228.994 228.994 0 0 0 3.849 45.733 44.251 44.251 0 0 0 41.235 35.366 44.28 44.28 0 0 0 19.058-3.311 83.42 83.42 0 0 1 38.057-5.129 81.692 81.692 0 0 1 48.579 23.318 81.623 81.623 0 0 1 23.473 48.487 85.473 85.473 0 0 1 0 21.37 44.002 44.002 0 0 0 9.32 35.887 44.038 44.038 0 0 0 14.948 11.712 44.074 44.074 0 0 0 18.493 4.332h2.138a213.996 213.996 0 0 0 81.331-18.721 213.909 213.909 0 0 0 67.972-48.405 213.725 213.725 0 0 0 58.087-152.99 213.707 213.707 0 0 0-18.73-81.293 213.788 213.788 0 0 0-48.427-67.941 213.93 213.93 0 0 0-70.754-44.246c-26.262-9.961-54.017-13.8-82.094-12.959zM142.299 246.011a39.783 39.783 0 0 1-22.057-6.817 39.747 39.747 0 0 1-16.69-40.895 39.75 39.75 0 0 1 31.413-31.062 39.774 39.774 0 0 1 40.732 17.12 39.727 39.727 0 0 1 6.583 22.119 39.738 39.738 0 0 1-11.647 28.107 39.779 39.779 0 0 1-28.12 11.642l-.214-.214z" fill="#FBBE2E"></path><path d="M320.184 408.642c21.963 0 39.768-17.797 39.768-39.749 0-21.953-17.805-39.75-39.768-39.75s-39.767 17.797-39.767 39.75c0 21.952 17.804 39.749 39.767 39.749z" fill="#5B3100"></path><path d="M382.829 307.132c21.963 0 39.768-17.796 39.768-39.749 0-21.953-17.805-39.749-39.768-39.749s-39.768 17.796-39.768 39.749c0 21.953 17.805 39.749 39.768 39.749z" fill="#163BF3"></path><path d="M340.496 197.501c21.963 0 39.767-17.796 39.767-39.749 0-21.952-17.804-39.749-39.767-39.749-21.963 0-39.768 17.797-39.768 39.749 0 21.953 17.805 39.749 39.768 39.749z" fill="#6D83F3"></path></symbol></defs><text id="sg-math-symbol-icon-art-title" hidden="" fill="#FFFFFF">art</text><use xlink:href="#icon-subject-art" aria-hidden="true" fill="#FFFFFF"></use></svg>