<svg xmlns:xlink="http://www.w3.org/1999/xlink" xmlns="http://www.w3.org/2000/svg" class="sg-subject-icon sg-subject-icon--small" aria-labelledby="sg-math-symbol-icon-biology-title" role="img" width="512"  height="512" ><defs><symbol viewBox="0 0 512 512" fill="none" style="overflow: visible" id="icon-subject-biology" xmlns="http://www.w3.org/2000/svg"><path d="M272 383.276c75.018-7.023 133.333-62.865 133.333-130.628 0-58.221-96-163.787-133.973-203.455a21.333 21.333 0 0 0-23.705-4.827 21.333 21.333 0 0 0-7.015 4.827c-37.973 39.668-133.973 145.234-133.973 203.455 0 67.763 58.315 123.605 133.333 130.628v48.729A15.993 15.993 0 0 0 256 448a15.993 15.993 0 0 0 16-15.995v-48.729z" fill="#24A865"></path><path d="M240 302.752l-36.686-36.675c-6.249-6.246-16.379-6.246-22.628 0-6.248 6.247-6.248 16.374 0 22.621L240 347.993v36.027h32v-36.027l59.314-59.295c6.248-6.247 6.248-16.374 0-22.621-6.249-6.246-16.379-6.246-22.628 0L272 302.752v-40.066l37.98-37.968c6.249-6.246 6.249-16.374 0-22.62-6.248-6.247-16.379-6.247-22.627 0L272 217.446v-52.023a15.995 15.995 0 0 0-16-15.995 15.995 15.995 0 0 0-16 15.995v52.023l-15.353-15.348c-6.248-6.247-16.379-6.247-22.627 0-6.249 6.246-6.249 16.374 0 22.62L240 262.686v40.066z" fill="#133191"></path></symbol></defs><text id="sg-math-symbol-icon-biology-title" hidden="" fill="#323C45">biology</text><use xlink:href="#icon-subject-biology" aria-hidden="true" fill="#323C45"></use></svg>