<svg xmlns:xlink="http://www.w3.org/1999/xlink" xmlns="http://www.w3.org/2000/svg" class="sg-icon__svg" role="img" aria-labelledby="title-chapter-mb2xk7" focusable="false" width="512"  height="512" ><defs><symbol viewBox="0 0 512 512" style="overflow: visible" id="icon-chapter" xmlns="http://www.w3.org/2000/svg"><title>chapter</title><path fill-rule="evenodd" d="M192 213.333l42.667-32 42.666 32v-128h85.334c11.782 0 21.333 9.552 21.333 21.334v234.666c0 11.782-9.551 21.334-21.333 21.334h-192c-11.782 0-21.334 9.55-21.334 21.333 0 11.664 9.362 21.142 20.98 21.33l.354.003h202.666c5.891 0 10.667 4.776 10.667 10.667s-4.776 10.667-10.667 10.667H170.667C147.103 426.667 128 407.564 128 384V128c0-23.564 19.103-42.667 42.667-42.667H192v128z"></path></symbol></defs><text id="title-chapter-mb2xk7" hidden="">chapter</text><use xlink:href="#icon-chapter" aria-hidden="true"></use></svg>