<svg xmlns:xlink="http://www.w3.org/1999/xlink" xmlns="http://www.w3.org/2000/svg" class="sg-subject-icon sg-subject-icon--small" aria-labelledby="sg-math-symbol-icon-chinese-title" role="img" width="512"  height="512" ><defs><symbol viewBox="0 0 512 512" fill="none" style="overflow: visible" id="icon-subject-chinese" xmlns="http://www.w3.org/2000/svg"><path d="M469.315 239.336a172.858 172.858 0 0 0-4.691-42.58 201.718 201.718 0 0 0-36.503-72.615 202.07 202.07 0 0 0-62.223-52.36 229.123 229.123 0 0 0-190.629-15.116 216.996 216.996 0 0 0-103.418 85.162 170.185 170.185 0 0 0-26.227 61.103 189.189 189.189 0 0 0 0 66.638 197.718 197.718 0 0 0 65.675 114.542 159.325 159.325 0 0 0 16.419 12.561 27.064 27.064 0 0 1 9.595 8.729 24.658 24.658 0 0 1 0 17.032 227.324 227.324 0 0 1-13.22 39.6c0 2.129-1.919 4.684 0 6.387a5.982 5.982 0 0 0 4.051.852 100.522 100.522 0 0 0 67.808-24.91 36.884 36.884 0 0 1 8.743-6.387 31.168 31.168 0 0 1 14.712 0 234.9 234.9 0 0 0 99.224-8.575 234.654 234.654 0 0 0 86.715-48.909 198.012 198.012 0 0 0 46.386-64.07 197.738 197.738 0 0 0 17.583-77.084z" fill="#0C114D"></path><path fill-rule="evenodd" clip-rule="evenodd" d="M302.687 260.599h49.156c2.828 0 5.12 2.381 5.12 5.319v44.247c0 5.874 4.585 10.636 10.241 10.636h16.385c5.656 0 10.241-4.762 10.241-10.636V182.529c0-5.874-4.585-10.636-10.241-10.636h-16.385c-5.656 0-10.241 4.762-10.241 10.636v39.354c0 2.938-2.292 5.319-5.12 5.319h-49.156c-2.828 0-5.12-2.381-5.12-5.319v-39.779c0-5.875-4.585-10.637-10.241-10.637h-16.385c-5.656 0-10.241 4.762-10.241 10.637v127.635c0 5.874 4.585 10.636 10.241 10.636h16.385c5.656 0 10.241-4.762 10.241-10.636v-43.821c0-2.938 2.292-5.319 5.12-5.319zm-119.202-47.863l-52.638 74.242a10.911 10.911 0 0 0-2.048 6.381v16.38c0 5.875 4.585 10.637 10.241 10.637h90.528c5.656 0 10.241-4.762 10.241-10.637v-12.125c0-5.874-4.585-10.636-10.241-10.636h-42.192c-1.939 0-3.712-1.138-4.579-2.94a5.486 5.486 0 0 1 .483-5.569l52.433-73.178a10.912 10.912 0 0 0 2.048-6.382v-16.38c0-5.874-4.585-10.636-10.241-10.636h-89.094c-5.656 0-10.241 4.762-10.241 10.636v11.062c0 5.874 4.585 10.636 10.241 10.636h40.963c1.939 0 3.712 1.139 4.579 2.94a5.486 5.486 0 0 1-.483 5.569z" fill="#FEDD8E"></path></symbol></defs><text id="sg-math-symbol-icon-chinese-title" hidden="" fill="#323C45">chinese</text><use xlink:href="#icon-subject-chinese" aria-hidden="true" fill="#323C45"></use></svg>