<svg xmlns:xlink="http://www.w3.org/1999/xlink" xmlns="http://www.w3.org/2000/svg" class="sg-subject-icon sg-subject-icon--small" aria-labelledby="sg-math-symbol-icon-all-title" role="img" width="512"  height="512" ><defs><symbol viewBox="0 0 512 512" fill="none" style="overflow: visible" id="icon-subject-all" xmlns="http://www.w3.org/2000/svg"><path d="M159.47 261.333c0 26.51-21.372 48-47.735 48S64 287.843 64 261.333c0-26.509 21.372-48 47.735-48s47.735 21.491 47.735 48z" fill="#FBBE2E"></path><path d="M302.674 112c0 26.51-21.371 48-47.735 48-26.363 0-47.734-21.49-47.734-48s21.371-48 47.734-48c26.364 0 47.735 21.49 47.735 48z" fill="#FF341A"></path><path d="M302.674 400c0 26.51-21.371 48-47.735 48-26.363 0-47.734-21.49-47.734-48s21.371-48 47.734-48c26.364 0 47.735 21.49 47.735 48z" fill="#24A865"></path><path d="M448 261.333c0 26.51-21.372 48-47.735 48s-47.735-21.49-47.735-48c0-26.509 21.372-48 47.735-48s47.735 21.491 47.735 48z" fill="#0089E3"></path><path d="M159.47 112c0 26.51-21.372 48-47.735 48S64 138.51 64 112s21.372-48 47.735-48 47.735 21.49 47.735 48zM159.47 400c0 26.51-21.372 48-47.735 48S64 426.51 64 400s21.372-48 47.735-48 47.735 21.49 47.735 48zM254.939 309.333c26.364 0 47.735-21.49 47.735-48 0-26.509-21.371-48-47.735-48-26.363 0-47.734 21.491-47.734 48 0 26.51 21.371 48 47.734 48zM448 112c0 26.51-21.372 48-47.735 48s-47.735-21.49-47.735-48 21.372-48 47.735-48S448 85.49 448 112zM400.265 448C426.628 448 448 426.51 448 400s-21.372-48-47.735-48-47.735 21.49-47.735 48 21.372 48 47.735 48z" fill="#000"></path></symbol></defs><text id="sg-math-symbol-icon-all-title" hidden="" fill="#FFFFFF">all</text><use xlink:href="#icon-subject-all" aria-hidden="true" fill="#FFFFFF"></use></svg>