<svg xmlns:xlink="http://www.w3.org/1999/xlink" xmlns="http://www.w3.org/2000/svg" class="sg-subject-icon sg-subject-icon--small" aria-labelledby="sg-math-symbol-icon-informatics-title" role="img" width="512"  height="512" ><defs><symbol viewBox="0 0 512 512" fill="none" style="overflow: visible" id="icon-subject-informatics" xmlns="http://www.w3.org/2000/svg"><path d="M60.335 366.383a21.32 21.32 0 0 1 8.202-10.839 21.243 21.243 0 0 1 13.071-3.662h348.667a21.244 21.244 0 0 1 13.021 3.576 21.318 21.318 0 0 1 8.252 10.712l17.231 57.577a19.654 19.654 0 0 1-4.425 17.708 19.563 19.563 0 0 1-7.744 5.305 19.526 19.526 0 0 1-9.317 1.083H64.377a19.743 19.743 0 0 1-16.684-6.529 19.876 19.876 0 0 1-4.59-17.354l17.232-57.577z" fill="#0C114D"></path><path d="M426.02 64H85.65c-11.749 0-21.273 9.547-21.273 21.325V298.57c0 11.777 9.524 21.325 21.273 21.325h340.37c11.749 0 21.273-9.548 21.273-21.325V85.325c0-11.778-9.524-21.325-21.273-21.325z" fill="#6D83F3"></path><path d="M404.747 106.649H106.923v170.597h297.824V106.649z" fill="#B9E2FE"></path></symbol></defs><text id="sg-math-symbol-icon-informatics-title" hidden="" fill="#323C45">informatics</text><use xlink:href="#icon-subject-informatics" aria-hidden="true" fill="#323C45"></use></svg>