<svg xmlns:xlink="http://www.w3.org/1999/xlink" xmlns="http://www.w3.org/2000/svg" class="sg-subject-icon sg-subject-icon--small" aria-labelledby="sg-math-symbol-icon-english-title" role="img" width="512"  height="512" ><defs><symbol viewBox="0 0 512 512" fill="none" style="overflow: visible" id="icon-subject-english" xmlns="http://www.w3.org/2000/svg"><path d="M469.315 239.334a172.858 172.858 0 0 0-4.691-42.58 201.718 201.718 0 0 0-36.503-72.615 202.072 202.072 0 0 0-62.223-52.36 229.123 229.123 0 0 0-190.629-15.116 216.996 216.996 0 0 0-103.418 85.162 170.185 170.185 0 0 0-26.227 61.103 189.189 189.189 0 0 0 0 66.638 197.715 197.715 0 0 0 65.675 114.542 159.184 159.184 0 0 0 16.419 12.561 27.064 27.064 0 0 1 9.595 8.729 24.658 24.658 0 0 1 0 17.032 227.324 227.324 0 0 1-13.22 39.6c0 2.129-1.919 4.684 0 6.387a5.982 5.982 0 0 0 4.051.852 100.522 100.522 0 0 0 67.808-24.91 36.884 36.884 0 0 1 8.743-6.387 31.168 31.168 0 0 1 14.712 0 234.9 234.9 0 0 0 99.224-8.575 234.654 234.654 0 0 0 86.715-48.909 198.012 198.012 0 0 0 46.386-64.07 197.738 197.738 0 0 0 17.583-77.084z" fill="#0C114D"></path><path fill-rule="evenodd" clip-rule="evenodd" d="M293.9 308.759v-58.508c.249-2.028 1.61-3.725 3.495-4.358 1.884-.632 3.953-.087 5.312 1.401l48.131 68.013c1.891 2.739 4.933 4.386 8.193 4.436h20.482c5.655 0 10.24-4.729 10.24-10.561V182.449c0-5.833-4.585-10.561-10.24-10.561h-16.59c-5.656 0-10.241 4.728-10.241 10.561v53.439c0 2.273-1.41 4.291-3.501 5.009-2.091.719-4.393-.022-5.716-1.841l-45.469-63.366c-1.934-2.659-4.969-4.225-8.192-4.225h-22.53c-5.656 0-10.241 4.729-10.241 10.562v126.732c0 5.833 4.585 10.561 10.241 10.561h16.385c5.656 0 10.241-4.728 10.241-10.561zm-71.276-102.442h-52.637c-14.132.211-14.132 28.303 0 29.359h30.722c1.014 0 2.31-.066 3.755-.139 6.733-.343 16.727-.853 16.727 4.364a37.926 37.926 0 0 1 0 12.039c0 5.281-14.747 5.281-20.482 5.281h-30.722c-15.361 0-15.566 30.205 0 30.205h52.637c5.656 0 10.241 4.728 10.241 10.561v12.25c0 5.833-4.585 10.561-10.241 10.561h-84.383c-5.656 0-10.241-4.728-10.241-10.561V183.505c0-5.833 4.585-10.561 10.241-10.561h84.383c5.656 0 10.241 4.728 10.241 10.561v12.251c0 5.832-4.585 10.561-10.241 10.561z" fill="#FEDD8E"></path></symbol></defs><text id="sg-math-symbol-icon-english-title" hidden="" fill="#323C45">english</text><use xlink:href="#icon-subject-english" aria-hidden="true" fill="#323C45"></use></svg>