<svg xmlns:xlink="http://www.w3.org/1999/xlink" xmlns="http://www.w3.org/2000/svg" class="sg-subject-icon sg-subject-icon--small" aria-labelledby="sg-math-symbol-icon-environment-title" role="img" width="512"  height="512" ><defs><symbol viewBox="0 0 512 512" fill="none" style="overflow: visible" id="icon-subject-environment" xmlns="http://www.w3.org/2000/svg"><path d="M469.334 317.156c0 57.6-19.18 85.333-49.441 109.227-46.457 33.706-102.077 27.733-147.042-16.427h-33.245a108.219 108.219 0 0 1-70.037 37.199 108.17 108.17 0 0 1-76.58-20.559 122.215 122.215 0 0 1-39.31-48.155 122.355 122.355 0 0 1-10.556-61.285c0-120.32 177.304-250.88 208.417-273.067a8.093 8.093 0 0 1 9.164 0c31.326 22.187 208.63 152.747 208.63 273.067z" fill="#00672E"></path><path d="M353.43 318.047a16.215 16.215 0 0 0-1.706-22.614 16.007 16.007 0 0 0-11.661-3.844 15.996 15.996 0 0 0-10.953 5.551l-56.32 65.707v-52.694l1.067-1.28L334.23 238.9a16.084 16.084 0 0 0 4.013-11.647 16.091 16.091 0 0 0-5.399-11.073 16.081 16.081 0 0 0-5.425-3.164 16.108 16.108 0 0 0-12.296.75 16.089 16.089 0 0 0-4.999 3.801l-37.334 42.666v-72.106a15.998 15.998 0 0 0-27.313-11.314 16 16 0 0 0-4.687 11.314V261.3l-37.333-42.667a16.175 16.175 0 1 0-24.32 21.334l60.373 69.973s0 1.28 1.28 1.493v51.414l-56.533-65.707a15.992 15.992 0 0 0-10.952-5.551 15.987 15.987 0 0 0-11.661 3.844 16.214 16.214 0 0 0-1.707 22.614l79.573 91.946h33.28l80.64-91.946z" fill="#FBBE2E"></path></symbol></defs><text id="sg-math-symbol-icon-environment-title" hidden="" fill="#FFFFFF">environment</text><use xlink:href="#icon-subject-environment" aria-hidden="true" fill="#FFFFFF"></use></svg>