<svg xmlns:xlink="http://www.w3.org/1999/xlink" xmlns="http://www.w3.org/2000/svg" class="sg-subject-icon sg-subject-icon--small" aria-labelledby="sg-math-symbol-icon-french-title" role="img" width="512"  height="512" ><defs><symbol viewBox="0 0 512 512" fill="none" style="overflow: visible" id="icon-subject-french" xmlns="http://www.w3.org/2000/svg"><path d="M469.315 239.334a172.858 172.858 0 0 0-4.691-42.58 201.718 201.718 0 0 0-36.503-72.615 202.072 202.072 0 0 0-62.223-52.36 229.123 229.123 0 0 0-190.629-15.116 216.996 216.996 0 0 0-103.418 85.162 170.185 170.185 0 0 0-26.227 61.103 189.189 189.189 0 0 0 0 66.638 197.715 197.715 0 0 0 65.675 114.542 159.184 159.184 0 0 0 16.419 12.561 27.064 27.064 0 0 1 9.595 8.729 24.658 24.658 0 0 1 0 17.032 227.324 227.324 0 0 1-13.22 39.6c0 2.129-1.919 4.684 0 6.387a5.982 5.982 0 0 0 4.051.852 100.522 100.522 0 0 0 67.808-24.91 36.884 36.884 0 0 1 8.743-6.387 31.168 31.168 0 0 1 14.712 0 234.9 234.9 0 0 0 99.224-8.575 234.654 234.654 0 0 0 86.715-48.909 198.012 198.012 0 0 0 46.386-64.07 197.738 197.738 0 0 0 17.583-77.084z" fill="#0C114D"></path><path fill-rule="evenodd" clip-rule="evenodd" d="M324.378 278.025c-3.69-8.513-22.345-10.002-22.345 0v31.495c0 5.876-4.589 10.64-10.25 10.64h-16.4c-5.661 0-10.25-4.764-10.25-10.64V181.836c.22-5.71 4.745-10.219 10.25-10.215h61.5c13.112-1.1 26.053 3.664 35.568 13.094 9.516 9.43 14.699 22.629 14.247 36.277.497 16.17-7.307 31.399-20.5 40.008-4.798 2.879-6.523 9.194-3.895 14.258l15.58 29.793a10.991 10.991 0 0 1-.182 10.545c-1.853 3.235-5.213 5.213-8.838 5.203h-18.45c-3.92.008-7.501-2.305-9.225-5.959 0 0-13.12-28.303-16.81-36.815zM149.102 171.621h85.28c5.66 0 10.25 4.764 10.25 10.64v12.769c0 5.876-4.59 10.64-10.25 10.64h-53.3c-5.945 0-9.225 22.983 2.87 22.77h48.995c5.66 0 10.25 4.764 10.25 10.641v12.13c0 5.876-4.59 10.64-10.25 10.64h-46.945c-5.661 0-10.25 4.764-10.25 10.64v37.241c0 5.877-4.59 10.641-10.25 10.641h-16.4c-5.661 0-10.25-4.764-10.25-10.641V182.048c.111-5.793 4.668-10.428 10.25-10.427zm163.179 34.049h18.86c6.092-1.036 12.199 1.76 15.571 7.128 3.371 5.369 3.371 12.297 0 17.666-3.372 5.368-9.479 8.164-15.571 7.127h-18.86c-5.661 0-10.25-4.764-10.25-10.64v-10.64c0-5.877 4.589-10.641 10.25-10.641z" fill="#FEDD8E"></path></symbol></defs><text id="sg-math-symbol-icon-french-title" hidden="" fill="#323C45">french</text><use xlink:href="#icon-subject-french" aria-hidden="true" fill="#323C45"></use></svg>