<svg xmlns:xlink="http://www.w3.org/1999/xlink" xmlns="http://www.w3.org/2000/svg" class="sg-subject-icon sg-subject-icon--small" aria-labelledby="sg-math-symbol-icon-geography-title" role="img" width="512"  height="512" ><defs><symbol viewBox="0 0 512 512" fill="none" style="overflow: visible" id="icon-subject-geography" xmlns="http://www.w3.org/2000/svg"><path d="M256 469.333c117.821 0 213.334-95.512 213.334-213.333S373.821 42.666 256 42.666C138.18 42.666 42.667 138.18 42.667 256S138.18 469.333 256 469.333z" fill="#0089E3"></path><path d="M121.175 334.933c38.613 24.96 115.2-10.88 102.613-96.213-11.058-74.327 24.182-118.804 42.632-142.092 16.077-20.291 19.406-24.493-31.752-18.335-140.8 16.64-193.28 205.227-113.493 256.64zM354.347 409.386c33.707-21.76 83.2-81.92 40.534-114.773-13.44-10.24-99.841-70.4-138.881 36.267-9.6 24.746-11.946 71.679 21.334 88.746a72.531 72.531 0 0 0 77.013-10.24z" fill="#60D399"></path></symbol></defs><text id="sg-math-symbol-icon-geography-title" hidden="" fill="#323C45">geography</text><use xlink:href="#icon-subject-geography" aria-hidden="true" fill="#323C45"></use></svg>