<svg xmlns:xlink="http://www.w3.org/1999/xlink" xmlns="http://www.w3.org/2000/svg" class="sg-subject-icon sg-subject-icon--small" aria-labelledby="sg-math-symbol-icon-language-title" role="img" width="512"  height="512" ><defs><symbol viewBox="0 0 512 512" fill="none" style="overflow: visible" id="icon-subject-language" xmlns="http://www.w3.org/2000/svg"><path d="M64 128.127h384c11.782 0 21.333 9.548 21.333 21.326v277.23c0 11.777-9.551 21.325-21.333 21.325H292.951A42.674 42.674 0 0 1 256 469.333a42.674 42.674 0 0 1-36.951-21.325H64c-11.782 0-21.333-9.548-21.333-21.325v-277.23c0-11.778 9.55-21.326 21.333-21.326z" fill="#0089E3"></path><path d="M426.703 64.151c-60.514-1.212-119.988 16.74-170.782 51.552C205.05 80.898 145.514 62.948 84.939 64.151c-2.722.007-5.33 1.157-7.25 3.196a10.032 10.032 0 0 0-2.257 3.39c-.52 1.284-.78 2.669-.764 4.066v287.583c-.02 1.429.238 2.847.758 4.166.52 1.32 1.29 2.512 2.263 3.503 1.986 1.906 4.568 2.968 7.25 2.983 58.436-2.179 115.962 15.761 163.934 51.126a10.814 10.814 0 0 0 3.222 2.13 7.815 7.815 0 0 0 3.826 0 8.196 8.196 0 0 0 3.827 0 10.814 10.814 0 0 0 3.222-2.13c47.935-35.298 105.355-53.302 163.733-51.339 2.747.017 5.403-1.045 7.451-2.983 1.846-2.003 2.922-4.66 3.021-7.456V75.442c.211-1.412.211-2.85 0-4.26a9.663 9.663 0 0 0-2.215-3.622 13.465 13.465 0 0 0-4.028-3.409 14.861 14.861 0 0 0-4.229 0z" fill="#B9E2FE"></path><path fill-rule="evenodd" clip-rule="evenodd" d="M118.59 133.728l-4.835-15.246c-8.424 2.669-13.088 11.659-10.417 20.079 2.653 8.368 11.552 13.025 19.93 10.462l.252-.069c.317-.082.916-.23 1.793-.41 1.753-.359 4.62-.846 8.561-1.195 7.87-.696 20.083-.846 36.324 1.719 16.241 2.564 27.813 6.47 35.085 9.558 3.641 1.546 6.218 2.892 7.775 3.774.779.441 1.304.767 1.579.943l.219.143c7.18 5.019 17.081 3.331 22.186-3.812 5.137-7.187 3.472-17.177-3.718-22.311l-.021-.015-.023-.016-.05-.036-.118-.083-.311-.213c-.24-.162-.547-.365-.92-.604a67.396 67.396 0 0 0-3.049-1.828c-2.576-1.458-6.241-3.348-11.039-5.385-9.606-4.078-23.698-8.726-42.602-11.712-18.904-2.985-33.743-2.905-44.139-1.985-5.193.459-9.262 1.127-12.162 1.721-1.45.297-2.607.576-3.464.8-.429.112-.783.21-1.062.291l-.361.107-.139.042-.058.018-.026.009s-.025.008 4.81 15.254zm114.734 3.635s.002.002-1.152 1.616l-8.133 11.375 9.285-12.991z" fill="#24A865"></path><path d="M118.585 219.016l-4.83-15.233c-8.424 2.669-13.088 11.659-10.417 20.079 2.653 8.369 11.552 13.025 19.93 10.463l.252-.069c.317-.083.916-.23 1.793-.41 1.753-.359 4.62-.846 8.561-1.195 7.87-.697 20.083-.846 36.324 1.718 16.241 2.565 27.813 6.47 35.085 9.558 3.641 1.546 6.218 2.893 7.775 3.775.779.441 1.304.766 1.579.942l.219.143c7.18 5.02 17.081 3.332 22.186-3.811 5.137-7.188 3.472-17.177-3.718-22.312l-9.301 13.014 9.301-13.014-.021-.015-.023-.016-.05-.035-.118-.083-.311-.213a38.79 38.79 0 0 0-.92-.604 66.472 66.472 0 0 0-3.049-1.828c-2.576-1.459-6.241-3.348-11.039-5.385-9.606-4.079-23.698-8.727-42.602-11.712-18.904-2.985-33.743-2.906-44.139-1.986-5.193.46-9.262 1.128-12.162 1.722-1.45.297-2.607.575-3.464.799-.429.112-.783.211-1.062.292l-.361.106-.139.043-.058.018-.026.008-.025.008 4.83 15.233zM113.755 289.085l4.835 15.246-4.835-15.246.025-.008.026-.008.058-.019.139-.042.361-.107c.279-.08.633-.179 1.062-.291a66.563 66.563 0 0 1 3.464-.8c2.9-.594 6.969-1.261 12.162-1.721 10.396-.92 25.235-1 44.139 1.986 18.904 2.985 32.996 7.633 42.602 11.711 4.798 2.037 8.463 3.927 11.039 5.385a68.347 68.347 0 0 1 3.049 1.828c.373.239.68.442.92.605l.311.213.118.082.05.036.023.016s.021.015-9.28 13.029l9.301-13.014c7.19 5.135 8.855 15.124 3.718 22.311-5.105 7.143-15.006 8.831-22.186 3.812l-.219-.143c-.275-.176-.8-.501-1.579-.943-1.557-.881-4.134-2.228-7.775-3.774-7.272-3.088-18.844-6.994-35.085-9.558-16.241-2.565-28.454-2.415-36.324-1.719-3.941.349-6.808.836-8.561 1.196-.877.179-1.476.327-1.793.41l-.252.068c-8.378 2.563-17.277-2.094-19.93-10.462-2.671-8.42 1.993-17.41 10.417-20.079z" fill="#24A865"></path><path d="M393.43 133.724l4.833-15.242c8.424 2.669 13.088 11.659 10.418 20.079-2.654 8.368-11.553 13.025-19.931 10.462l-.252-.069c-.317-.082-.916-.23-1.793-.41-1.753-.359-4.62-.846-8.561-1.195-7.87-.696-20.083-.846-36.324 1.719-16.24 2.564-27.812 6.47-35.085 9.558-3.641 1.546-6.218 2.892-7.775 3.774-.779.441-1.304.767-1.579.943l-.219.143c-7.18 5.019-17.081 3.331-22.186-3.812-5.137-7.187-3.472-17.177 3.718-22.311l9.297 13.008-9.297-13.008.021-.015.023-.016.05-.036.118-.083.311-.213c.24-.162.547-.365.92-.604a67.396 67.396 0 0 1 3.049-1.828c2.576-1.458 6.241-3.348 11.039-5.385 9.606-4.078 23.699-8.726 42.602-11.712 18.904-2.985 33.743-2.905 44.139-1.985 5.193.459 9.262 1.127 12.162 1.721 1.45.297 2.607.576 3.464.8.429.112.784.21 1.062.291l.362.107.138.042.058.018.027.009.024.008-4.833 15.242zM393.436 219.007l4.827-15.224c8.424 2.669 13.088 11.659 10.418 20.079-2.654 8.369-11.553 13.025-19.931 10.463l-.252-.069c-.317-.083-.916-.23-1.793-.41-1.753-.359-4.62-.846-8.561-1.195-7.87-.697-20.083-.846-36.324 1.718-16.24 2.565-27.812 6.47-35.085 9.558-3.641 1.546-6.218 2.893-7.775 3.775-.779.441-1.304.766-1.579.942l-.219.143c-7.18 5.02-17.081 3.332-22.186-3.811-5.137-7.188-3.472-17.177 3.718-22.312l9.301 13.014-9.301-13.014.021-.015.023-.016.05-.035.118-.083.311-.213c.24-.163.547-.366.92-.604a66.472 66.472 0 0 1 3.049-1.828c2.576-1.459 6.241-3.348 11.039-5.385 9.606-4.079 23.699-8.727 42.602-11.712 18.904-2.985 33.743-2.906 44.139-1.986 5.193.46 9.262 1.128 12.162 1.722 1.45.297 2.607.575 3.464.799.429.112.784.211 1.062.292l.362.106.138.043.058.018.027.008s.024.008-4.803 15.232zM398.263 289.085l-4.834 15.246 4.834-15.246-.024-.008-.027-.008-.058-.019-.138-.042-.362-.107c-.278-.08-.633-.179-1.062-.291a66.563 66.563 0 0 0-3.464-.8c-2.9-.594-6.969-1.261-12.162-1.721-10.396-.92-25.235-1-44.139 1.986-18.903 2.985-32.996 7.633-42.602 11.711-4.798 2.037-8.463 3.927-11.039 5.385a68.347 68.347 0 0 0-3.049 1.828c-.373.239-.68.442-.92.605l-.311.213-.118.082-.05.036-.023.016s-.021.015 9.28 13.029l-9.301-13.014c-7.19 5.135-8.855 15.124-3.718 22.311 5.105 7.143 15.006 8.831 22.186 3.812l.219-.143c.275-.176.8-.501 1.579-.943 1.557-.881 4.134-2.228 7.775-3.774 7.273-3.088 18.845-6.994 35.085-9.558 16.241-2.565 28.454-2.415 36.324-1.719 3.941.349 6.808.836 8.561 1.196.877.179 1.476.327 1.793.41l.252.068c8.378 2.563 17.277-2.094 19.931-10.462 2.67-8.42-1.994-17.41-10.418-20.079z" fill="#00672E"></path></symbol></defs><text id="sg-math-symbol-icon-language-title" hidden="" fill="#323C45">language</text><use xlink:href="#icon-subject-language" aria-hidden="true" fill="#323C45"></use></svg>