<svg xmlns:xlink="http://www.w3.org/1999/xlink" xmlns="http://www.w3.org/2000/svg" class="sg-subject-icon sg-subject-icon--small" aria-labelledby="sg-math-symbol-icon-history-title" role="img" width="512"  height="512" ><defs><symbol viewBox="0 0 512 512" fill="none" style="overflow: visible" id="icon-subject-history" xmlns="http://www.w3.org/2000/svg"><path d="M448 426.738a21.326 21.326 0 0 1-6.193 15.035A21.089 21.089 0 0 1 426.855 448H85.145a21.088 21.088 0 0 1-14.951-6.227A21.324 21.324 0 0 1 64 426.738a21.35 21.35 0 0 1 2.75-10.63l6.132-10.631 24.317-42.524 12.264-21.261 19.665-34.444 16.916-29.341 36.582-63.785 24.529-42.524 12.052-21.261 18.397-31.893a21.226 21.226 0 0 1 7.797-8.595 21.06 21.06 0 0 1 11.128-3.182c3.931 0 7.785 1.102 11.128 3.182a21.226 21.226 0 0 1 7.797 8.595l17.339 31.893 12.053 21.261 24.529 42.524 36.581 63.785 16.916 29.341 19.454 34.444 12.264 21.261 24.317 42.524 6.133 10.631a21.355 21.355 0 0 1 2.96 10.63z" fill="#FBBE2E"></path><path d="M317.745 362.953a42.177 42.177 0 0 1 29.904 12.455 42.643 42.643 0 0 1 12.386 30.069V448h-84.581v-42.523a42.644 42.644 0 0 1 12.387-30.069 42.175 42.175 0 0 1 29.904-12.455z" fill="#163BF3"></path><path d="M247.331 109.727L194.256 448H85.146a21.088 21.088 0 0 1-14.952-6.227A21.324 21.324 0 0 1 64 426.738a21.35 21.35 0 0 1 2.75-10.63l6.132-10.631 24.317-42.524 12.264-21.261 19.665-34.444 16.916-29.341 36.582-63.785 24.529-42.524 12.052-21.261 18.397-31.893a18.43 18.43 0 0 1 9.727-8.717z" fill="#C98600"></path></symbol></defs><text id="sg-math-symbol-icon-history-title" hidden="" fill="#323C45">history</text><use xlink:href="#icon-subject-history" aria-hidden="true" fill="#323C45"></use></svg>