<svg xmlns:xlink="http://www.w3.org/1999/xlink" xmlns="http://www.w3.org/2000/svg" class="sg-subject-icon sg-subject-icon--small" aria-labelledby="sg-math-symbol-icon-india-lang-title" role="img" width="512"  height="512" ><defs><symbol viewBox="0 0 512 512" fill="none" style="overflow: visible" id="icon-subject-india-lang" xmlns="http://www.w3.org/2000/svg"><path d="M469.315 239.336a172.858 172.858 0 0 0-4.691-42.58 201.718 201.718 0 0 0-36.503-72.615 202.07 202.07 0 0 0-62.223-52.36 229.123 229.123 0 0 0-190.629-15.116 216.996 216.996 0 0 0-103.418 85.162 170.185 170.185 0 0 0-26.227 61.103 189.189 189.189 0 0 0 0 66.638 197.718 197.718 0 0 0 65.675 114.542 159.325 159.325 0 0 0 16.419 12.561 27.064 27.064 0 0 1 9.595 8.729 24.658 24.658 0 0 1 0 17.032 227.324 227.324 0 0 1-13.22 39.6c0 2.129-1.919 4.684 0 6.387a5.982 5.982 0 0 0 4.051.852 100.522 100.522 0 0 0 67.808-24.91 36.884 36.884 0 0 1 8.743-6.387 31.168 31.168 0 0 1 14.712 0 234.9 234.9 0 0 0 99.224-8.575 234.654 234.654 0 0 0 86.715-48.909 198.012 198.012 0 0 0 46.386-64.07 197.738 197.738 0 0 0 17.583-77.084z" fill="#0C114D"></path><path fill-rule="evenodd" clip-rule="evenodd" d="M259.315 309.542v-58.841c.314-2.002 1.7-3.645 3.573-4.232 1.872-.587 3.903-.016 5.234 1.471l48.132 68.4c1.89 2.755 4.933 4.411 8.192 4.461h20.482c5.656 0 10.241-4.755 10.241-10.621V182.726c0-5.866-4.585-10.621-10.241-10.621h-16.59c-5.656 0-10.241 4.755-10.241 10.621v53.53c0 2.286-1.41 4.316-3.501 5.039-2.091.722-4.393-.024-5.716-1.852l-45.468-63.727c-1.934-2.675-4.97-4.249-8.193-4.249h-22.53c-5.656 0-10.24 4.756-10.24 10.622v127.453c0 5.866 4.584 10.622 10.24 10.622h16.385c5.656 0 10.241-4.756 10.241-10.622zm-72.504-137.649h-16.385c-5.656 0-10.241 4.755-10.241 10.621v127.453c0 5.866 4.585 10.622 10.241 10.622h16.385c5.656 0 10.241-4.756 10.241-10.622V182.514c0-5.866-4.585-10.621-10.241-10.621z" fill="#FEDD8E"></path></symbol></defs><text id="sg-math-symbol-icon-india-lang-title" hidden="" fill="#323C45">india lang</text><use xlink:href="#icon-subject-india-lang" aria-hidden="true" fill="#323C45"></use></svg>