<svg xmlns:xlink="http://www.w3.org/1999/xlink" xmlns="http://www.w3.org/2000/svg" class="sg-subject-icon sg-subject-icon--small" aria-labelledby="sg-math-symbol-icon-mathematics-title" role="img" width="512"  height="512" ><defs><symbol viewBox="0 0 512 512" fill="none" style="overflow: visible" id="icon-subject-mathematics" xmlns="http://www.w3.org/2000/svg"><path d="M277.333 85.333c0-11.782 9.552-21.333 21.334-21.333h128C438.449 64 448 73.551 448 85.333v128c0 11.782-9.551 21.334-21.333 21.334h-128c-11.782 0-21.334-9.552-21.334-21.334v-128zM85.333 277.333c-11.782 0-21.333 9.552-21.333 21.334v128C64 438.449 73.551 448 85.333 448h128c11.782 0 21.334-9.551 21.334-21.333v-128c0-11.782-9.552-21.334-21.334-21.334h-128zM298.667 277.333c-11.782 0-21.334 9.552-21.334 21.334v128c0 11.782 9.552 21.333 21.334 21.333h128c11.782 0 21.333-9.551 21.333-21.333v-128c0-11.782-9.551-21.334-21.333-21.334h-128zM85.333 64C73.551 64 64 73.551 64 85.333v128c0 11.782 9.551 21.334 21.333 21.334h128c11.782 0 21.334-9.552 21.334-21.334v-128c0-11.782-9.552-21.333-21.334-21.333h-128z" fill="#0C114D"></path><path d="M128 106.667c0-11.782 9.551-21.334 21.333-21.334 11.782 0 21.334 9.552 21.334 21.334V128H192c11.782 0 21.333 9.551 21.333 21.333 0 11.782-9.551 21.334-21.333 21.334h-21.333V192c0 11.782-9.552 21.333-21.334 21.333S128 203.782 128 192v-21.333h-21.333c-11.782 0-21.334-9.552-21.334-21.334S94.885 128 106.667 128H128v-21.333zM104.078 347.582c-8.331-8.331-8.331-21.839 0-30.17 8.331-8.331 21.839-8.331 30.17 0l15.085 15.085 15.085-15.085c8.331-8.331 21.838-8.331 30.169 0 8.332 8.331 8.332 21.839 0 30.17l-15.084 15.085 15.084 15.085c8.332 8.331 8.332 21.838 0 30.169-8.331 8.332-21.838 8.332-30.169 0l-15.085-15.084-15.085 15.084c-8.331 8.332-21.839 8.332-30.17 0-8.331-8.331-8.331-21.838 0-30.169l15.085-15.085-15.085-15.085zM405.333 341.333c11.782 0 21.334 9.552 21.334 21.334S417.115 384 405.333 384H320c-11.782 0-21.333-9.551-21.333-21.333 0-11.782 9.551-21.334 21.333-21.334h85.333zM384 117.333c0 11.782-9.551 21.334-21.333 21.334-11.782 0-21.334-9.552-21.334-21.334S350.885 96 362.667 96 384 105.551 384 117.333zM384 181.333c0 11.782-9.551 21.334-21.333 21.334-11.782 0-21.334-9.552-21.334-21.334S350.885 160 362.667 160 384 169.551 384 181.333z" fill="#60D399"></path></symbol></defs><text id="sg-math-symbol-icon-mathematics-title" hidden="" fill="#FFFFFF">mathematics</text><use xlink:href="#icon-subject-mathematics" aria-hidden="true" fill="#FFFFFF"></use></svg>