<svg xmlns:xlink="http://www.w3.org/1999/xlink" xmlns="http://www.w3.org/2000/svg" class="sg-subject-icon sg-subject-icon--small" aria-labelledby="sg-math-symbol-icon-music-title" role="img" width="512"  height="512" ><defs><symbol viewBox="0 0 512 512" fill="none" style="overflow: visible" id="icon-subject-music" xmlns="http://www.w3.org/2000/svg"><path d="M214.648 170.667h214.976v42.666H214.648v-42.666z" fill="#24A865"></path><path d="M248.43 128l-33.783 234.667c0 47.128-38.499 85.333-85.99 85.333-47.491 0-85.99-38.205-85.99-85.333 0-47.129 38.499-85.334 85.99-85.334 19.725 0 37.898 6.591 52.407 17.674l29.571-212.59C212.103 71.861 221.193 64 231.93 64h219.191v.247c11.427 1.733 19.684 12.352 17.992 24.103l-39.49 274.317c0 47.128-38.499 85.333-85.99 85.333-47.491 0-85.99-38.205-85.99-85.333 0-47.129 38.499-85.334 85.99-85.334 19.725 0 37.898 6.591 52.406 17.674L419.269 128H248.43z" fill="#133191"></path></symbol></defs><text id="sg-math-symbol-icon-music-title" hidden="" fill="#323C45">music</text><use xlink:href="#icon-subject-music" aria-hidden="true" fill="#323C45"></use></svg>