<svg xmlns:xlink="http://www.w3.org/1999/xlink" xmlns="http://www.w3.org/2000/svg" class="sg-subject-icon sg-subject-icon--small" aria-labelledby="sg-math-symbol-icon-politics-title" role="img" width="512"  height="512" ><defs><symbol viewBox="0 0 512 512" fill="none" style="overflow: visible" id="icon-subject-politics" xmlns="http://www.w3.org/2000/svg"><path d="M128 277.333c-11.782 0-21.333 9.552-21.333 21.334v64c0 11.782 9.551 21.333 21.333 21.333 11.782 0 21.333-9.551 21.333-21.333v-64c0-11.782-9.551-21.334-21.333-21.334zM192 298.667c0-11.782 9.551-21.334 21.333-21.334 11.782 0 21.334 9.552 21.334 21.334v64c0 11.782-9.552 21.333-21.334 21.333S192 374.449 192 362.667v-64zM298.667 277.333c-11.782 0-21.334 9.552-21.334 21.334v64c0 11.782 9.552 21.333 21.334 21.333S320 374.449 320 362.667v-64c0-11.782-9.551-21.334-21.333-21.334zM384 277.333c-11.782 0-21.333 9.552-21.333 21.334v64c0 11.782 9.551 21.333 21.333 21.333 11.782 0 21.333-9.551 21.333-21.333v-64c0-11.782-9.551-21.334-21.333-21.334z" fill="#C98600"></path><path d="M459.789 256H52.211c-9.663 0-13.188-11.525-4.902-16.028L251.098 129.23c3.017-1.64 6.787-1.64 9.804 0l203.789 110.742c8.286 4.503 4.761 16.028-4.902 16.028zM72.533 405.333A8.534 8.534 0 0 0 64 413.867v25.6A8.533 8.533 0 0 0 72.533 448h366.934a8.533 8.533 0 0 0 8.533-8.533v-25.6a8.534 8.534 0 0 0-8.533-8.534H72.533z" fill="#FBBE2E"></path><path d="M256 64h76.8a8.533 8.533 0 0 1 8.533 8.533v25.6a8.533 8.533 0 0 1-8.533 8.534H256V64z" fill="#163BF3"></path></symbol></defs><text id="sg-math-symbol-icon-politics-title" hidden="" fill="#323C45">politics</text><use xlink:href="#icon-subject-politics" aria-hidden="true" fill="#323C45"></use></svg>