<svg xmlns:xlink="http://www.w3.org/1999/xlink" xmlns="http://www.w3.org/2000/svg" class="sg-subject-icon sg-subject-icon--small" aria-labelledby="sg-math-symbol-icon-psychology-title" role="img" width="512"  height="512" ><defs><symbol viewBox="0 0 512 512" fill="none" style="overflow: visible" id="icon-subject-psychology" xmlns="http://www.w3.org/2000/svg"><path d="M396.799 370.658c45.256-32.971 74.667-86.38 74.667-146.658 0-100.147-81.186-181.333-181.333-181.333-95.002 0-172.941 73.057-180.699 166.055L65.707 281.6c-4.267 7.04 0 17.067 6.827 17.067h46.932V384a21.335 21.335 0 0 0 21.333 21.334h42.667V448h213.333v-77.342z" fill="#133191"></path><path d="M321.295 258.851c24.526-12.239 41.372-37.577 41.372-66.851 0-41.237-33.43-74.666-74.667-74.666S213.333 150.763 213.333 192c0 29.273 16.846 54.612 41.372 66.851l-14.383 72.284c-1.05 5.278 2.988 10.199 8.369 10.199h78.617c5.381 0 9.419-4.921 8.369-10.199l-14.382-72.284z" fill="#FBBE2E"></path></symbol></defs><text id="sg-math-symbol-icon-psychology-title" hidden="" fill="#323C45">psychology</text><use xlink:href="#icon-subject-psychology" aria-hidden="true" fill="#323C45"></use></svg>