<svg xmlns:xlink="http://www.w3.org/1999/xlink" xmlns="http://www.w3.org/2000/svg" class="sg-subject-icon sg-subject-icon--small" aria-labelledby="sg-math-symbol-icon-science-title" role="img" width="512"  height="512" ><defs><symbol viewBox="0 0 512 512" fill="none" style="overflow: visible" id="icon-subject-science" xmlns="http://www.w3.org/2000/svg"><path d="M341.333 64H170.667a21.332 21.332 0 0 0-15.085 36.418c4 4.001 9.427 6.249 15.085 6.249V384a85.333 85.333 0 1 0 170.666 0V106.667a21.333 21.333 0 0 0 0-42.667z" fill="#B9E2FE"></path><path d="M170.667 330.667h170.666V384a85.333 85.333 0 1 1-170.666 0v-53.333z" fill="#CF1D00"></path><path d="M170.667 165.333h64c8.836 0 16 7.164 16 16 0 8.837-7.164 16-16 16h-64v-32zM250.667 256c0-8.837-7.164-16-16-16h-64v32h64c8.836 0 16-7.163 16-16zM250.667 330.667c0-8.837-7.164-16-16-16h-64v32h64c8.836 0 16-7.164 16-16z" fill="#014A82"></path></symbol></defs><text id="sg-math-symbol-icon-science-title" hidden="" fill="#323C45">science</text><use xlink:href="#icon-subject-science" aria-hidden="true" fill="#323C45"></use></svg>