<svg xmlns:xlink="http://www.w3.org/1999/xlink" xmlns="http://www.w3.org/2000/svg" class="sg-subject-icon sg-subject-icon--small" aria-labelledby="sg-math-symbol-icon-social-science-title" role="img" width="512"  height="512" ><defs><symbol viewBox="0 0 512 512" fill="none" style="overflow: visible" id="icon-subject-social-science" xmlns="http://www.w3.org/2000/svg"><path d="M401.92 411.579a7.296 7.296 0 0 0 0 5.564 78.681 78.681 0 0 0 10.88 28.46c.101.35.101.721 0 1.07.1.422.1.862 0 1.284h-1.28a76.225 76.225 0 0 1-50.987-17.333 11.731 11.731 0 0 0-4.906-2.354 12.142 12.142 0 0 0-5.547 0c-74.027 8.132-179.413-27.39-179.413-116.408h10.88a237.743 237.743 0 0 0 123.52-33.81c30.109-17.77 52.544-46.148 62.933-79.603 58.667 16.477 101.333 61.414 101.333 112.985a113.85 113.85 0 0 1-19.175 56.196 113.388 113.388 0 0 1-44.825 38.814 8.348 8.348 0 0 0-3.413 5.135z" fill="#133191"></path><path d="M341.333 161.215c0-64.196-68.266-118.549-149.333-118.549S42.667 96.806 42.667 161.216a113.859 113.859 0 0 0 19.071 56.442 113.38 113.38 0 0 0 44.929 38.996 8.762 8.762 0 0 1 4.053 4.28 7.726 7.726 0 0 1 0 5.777 80.185 80.185 0 0 1-10.88 28.461 2.785 2.785 0 0 0 0 2.139v1.07h1.28a76.225 76.225 0 0 0 50.987-17.332 11.707 11.707 0 0 1 4.906-2.354 12.115 12.115 0 0 1 5.547 0c73.6 7.703 178.773-28.033 178.773-117.479z" fill="#00672E"></path></symbol></defs><text id="sg-math-symbol-icon-social-science-title" hidden="" fill="#FFFFFF">social science</text><use xlink:href="#icon-subject-social-science" aria-hidden="true" fill="#FFFFFF"></use></svg>