<svg xmlns:xlink="http://www.w3.org/1999/xlink" xmlns="http://www.w3.org/2000/svg" class="sg-subject-icon sg-subject-icon--small" aria-labelledby="sg-math-symbol-icon-sociology-title" role="img" width="512"  height="512" ><defs><symbol viewBox="0 0 512 512" fill="none" style="overflow: visible" id="icon-subject-sociology" xmlns="http://www.w3.org/2000/svg"><path d="M469.333 256c0-93.227-95.36-128-213.333-128S42.667 162.773 42.667 256 138.027 384 256 384s213.333-34.773 213.333-128z" fill="#4FB3F6"></path><path d="M256 362.453c58.91 0 106.667-47.66 106.667-106.453 0-58.793-47.757-106.453-106.667-106.453-58.91 0-106.667 47.66-106.667 106.453 0 58.793 47.757 106.453 106.667 106.453z" fill="#EBEEFF"></path><path d="M256 298.667c23.564 0 42.667-19.103 42.667-42.667S279.564 213.333 256 213.333 213.333 232.436 213.333 256s19.103 42.667 42.667 42.667z" fill="#0C114D"></path></symbol></defs><text id="sg-math-symbol-icon-sociology-title" hidden="" fill="#323C45">sociology</text><use xlink:href="#icon-subject-sociology" aria-hidden="true" fill="#323C45"></use></svg>